<svg xmlns="http://www.w3.org/2000/svg" xmlns:xlink="http://www.w3.org/1999/xlink" viewBox="0,0,256,256" width="96px" height="96px"><defs><linearGradient x1="40" y1="43.664" x2="40" y2="14.074" gradientUnits="userSpaceOnUse" id="color-1"><stop offset="0" stop-color="#6f5454"></stop><stop offset="0.112" stop-color="#503131"></stop><stop offset="0.258" stop-color="#1c3b4a"></stop><stop offset="0.5" stop-color="#324f66"></stop><stop offset="0.742" stop-color="#1c3b4a"></stop><stop offset="0.888" stop-color="#503131"></stop><stop offset="1" stop-color="#6f5454"></stop></linearGradient><linearGradient x1="5" y1="24" x2="37" y2="24" gradientUnits="userSpaceOnUse" id="color-2"><stop offset="0" stop-color="#3f5151"></stop><stop offset="1" stop-color="#1f4558"></stop></linearGradient><linearGradient x1="20" y1="33" x2="20" y2="18.052" gradientUnits="userSpaceOnUse" id="color-3"><stop offset="0.273" stop-color="#415149"></stop><stop offset="0.611" stop-color="#0d502b"></stop><stop offset="0.795" stop-color="#13723e"></stop><stop offset="0.94" stop-color="#16643a"></stop><stop offset="1" stop-color="#185c37"></stop></linearGradient></defs><g fill="none" fill-rule="nonzero" stroke="none" stroke-width="1" stroke-linecap="butt" stroke-linejoin="miter" stroke-miterlimit="10" stroke-dasharray="" stroke-dashoffset="0" font-family="none" font-weight="none" font-size="none" text-anchor="none" style="mix-blend-mode: normal"><g transform="scale(5.33333,5.33333)"><path d="M41.828,38.172l-4.828,4.828v-14c0,-0.552 0.448,-1 1,-1h4c0.552,0 1,0.448 1,1v6.343c0,1.061 -0.421,2.078 -1.172,2.829z" fill="url(#color-1)"></path><path d="M37,37v6h-28c-2.209,0 -4,-1.791 -4,-4v-33c0,-0.55 0.45,-1 1,-1h4c0.55,0 1,0.45 1,1v30c0,0.552 0.448,1 1,1z" fill="url(#color-2)"></path><path d="M24,18v13c0,1.105 -0.895,2 -2,2h-4c-1.105,0 -2,-0.895 -2,-2v-13z" fill="url(#color-3)"></path><path d="M44.643,13.357l-9.091,-9.091c-0.26,-0.26 -0.65,-0.337 -0.991,-0.197c-0.34,0.141 -0.561,0.472 -0.561,0.84v5.091h-6.686c-2.122,0 -4.157,0.843 -5.657,2.343l-5.657,5.657h18v5.091c0,0.368 0.221,0.699 0.561,0.84c0.113,0.046 0.231,0.069 0.348,0.069c0.236,0 0.469,-0.092 0.643,-0.266l9.091,-9.091c0.355,-0.355 0.355,-0.931 0,-1.286z" fill="#446e5a"></path></g></g></svg>